<?xml version="1.0" standalone="no"?>
<!DOCTYPE svg PUBLIC "-//W3C//DTD SVG 20010904//EN"
 "http://www.w3.org/TR/2001/REC-SVG-20010904/DTD/svg10.dtd">
<svg version="1.0" xmlns="http://www.w3.org/2000/svg"
 width="256.000000pt" height="256.000000pt" viewBox="0 0 256.000000 256.000000"
 preserveAspectRatio="xMidYMid meet">
<metadata>
Created by potrace 1.14, written by Peter Selinger 2001-2017
</metadata>
<g transform="translate(0.000000,256.000000) scale(0.100000,-0.100000)"
fill="#000000" stroke="none">
<path d="M0 1280 l0 -1280 1280 0 1280 0 -1 568 0 567 -24 -65 c-14 -36 -25
-70 -25 -76 0 -5 -7 -19 -15 -30 -12 -16 -12 -11 1 35 9 30 27 79 40 109 27
62 30 98 9 126 -8 10 -24 49 -36 85 -12 36 -30 77 -40 90 -11 13 -19 34 -19
47 0 18 -7 25 -27 30 -16 3 -34 7 -40 10 -18 5 -16 -13 2 -20 24 -9 17 -26
-10 -26 -22 0 -25 3 -19 25 6 25 5 25 -55 25 -58 0 -67 -5 -62 -32 0 -5 -8 -8
-19 -8 -25 0 -27 29 -2 32 9 0 -37 6 -103 13 l-120 12 221 2 c202 1 222 -1
237 -17 9 -10 35 -72 58 -138 22 -65 42 -121 45 -123 2 -2 4 293 4 657 l0 662
-475 0 -476 0 38 -38 c28 -28 44 -36 62 -33 15 2 22 0 17 -7 -3 -6 0 -14 8
-19 11 -6 16 -30 18 -87 3 -76 4 -79 21 -62 13 13 17 34 17 82 l0 64 55 0 54
0 53 -71 53 -71 3 71 3 71 54 0 55 0 1 -82 c1 -46 1 -106 -1 -135 -2 -64 7
-109 23 -111 41 -4 54 -9 70 -29 10 -13 29 -23 42 -23 40 0 77 -22 72 -42 -3
-10 1 -24 8 -31 22 -23 2 -196 -24 -205 -6 -2 -11 -17 -11 -32 0 -16 -4 -32
-10 -35 -6 -4 -7 18 -3 59 5 60 3 69 -26 120 -37 66 -37 66 -11 59 11 -3 18
-9 15 -13 -3 -4 2 -14 11 -21 13 -11 15 -9 12 15 -4 29 -59 68 -66 46 -9 -25
-32 14 -32 55 0 64 -18 70 -223 69 -94 -1 -172 -5 -174 -10 -2 -5 -23 -8 -47
-6 -60 5 -110 -20 -100 -51 3 -12 8 -23 9 -25 5 -5 37 -10 73 -11 31 -1 32 -3
32 -41 0 -36 -2 -40 -26 -40 -14 0 -23 4 -19 10 3 5 13 7 23 4 12 -4 13 -3 4
3 -7 5 -10 17 -6 26 4 12 1 17 -11 17 -12 0 -15 -5 -10 -20 5 -14 2 -20 -9
-20 -9 0 -16 -4 -16 -8 0 -5 -7 -9 -15 -9 -11 0 -12 4 -4 14 9 10 8 13 -5 13
-12 0 -16 -10 -16 -39 0 -32 4 -41 21 -46 13 -4 25 -2 29 5 10 17 31 3 23 -15
-3 -9 1 -15 11 -15 9 0 16 -7 16 -15 0 -10 -10 -15 -29 -15 -42 0 -61 -10 -61
-31 0 -16 8 -19 50 -19 58 0 67 -16 14 -26 -25 -5 -39 -3 -44 6 -4 7 -8 -28
-8 -77 0 -49 -5 -100 -11 -111 -12 -22 -12 -22 112 -22 109 0 127 -2 150 -20
16 -13 32 -18 44 -13 16 6 16 5 5 -10 -8 -9 -11 -20 -9 -24 3 -5 -1 -17 -8
-27 -13 -17 -14 -17 -20 10 -13 59 -12 59 -151 62 -71 1 -133 7 -138 12 -6 6
-20 10 -32 10 -12 0 -37 15 -56 33 -33 31 -34 34 -36 122 -2 50 -5 102 -8 117
-3 14 0 29 5 33 6 3 11 28 11 56 0 27 5 49 10 49 22 0 8 20 -17 25 -16 4 -84
21 -153 38 -122 31 -124 32 -73 35 59 3 164 -21 209 -49 17 -10 44 -19 58 -19
25 0 27 2 21 30 -5 21 -3 32 8 36 24 9 4 78 -38 129 -46 57 -65 69 -139 90
-51 15 -69 16 -140 5 -90 -14 -195 -52 -220 -79 -9 -10 -34 -57 -54 -103 -23
-51 -57 -106 -84 -137 l-46 -50 -96 4 c-54 2 -109 0 -123 -6 -17 -6 -30 -6
-39 2 -10 8 -17 7 -29 -5 -9 -9 -21 -16 -26 -16 -5 0 -38 -13 -73 -30 l-63
-29 -7 -53 c-4 -29 -8 -61 -8 -70 1 -15 -9 -18 -65 -18 -56 0 -66 3 -70 20 -5
17 -14 20 -65 20 -51 0 -61 -3 -65 -20 -5 -17 -14 -20 -70 -20 -48 0 -64 3
-60 13 60 147 68 170 58 176 -5 4 -9 20 -7 36 3 33 -16 80 -36 89 -7 3 -1 3
14 0 20 -4 28 -2 28 7 0 11 3 11 10 -1 6 -10 10 -11 10 -2 0 6 7 12 15 12 8 0
15 5 15 10 0 6 18 10 40 10 29 0 40 4 40 15 0 11 11 15 40 15 43 0 47 5 26 33
-9 12 -27 17 -60 17 l-46 0 0 119 0 120 -48 3 -47 3 0 45 0 45 153 3 152 3 0
-51 0 -50 -50 0 -50 0 1 -42 c2 -56 16 -170 18 -140 0 12 8 22 16 22 8 0 15 7
15 15 0 9 9 15 23 15 46 0 51 13 55 125 l4 107 127 -3 c91 -2 133 1 150 10 21
12 26 11 38 -5 16 -21 13 -60 -4 -57 -8 2 -8 -9 -1 -37 7 -27 7 -49 0 -70 -7
-18 -7 -30 -1 -30 5 0 9 5 9 10 0 6 10 10 23 9 12 0 16 -3 10 -6 -7 -2 -13
-12 -13 -21 0 -25 20 9 65 111 l38 87 57 0 c57 0 57 0 75 -40 l18 -41 14 33
c10 23 16 29 22 19 5 -7 12 -11 17 -9 5 1 13 -10 18 -25 8 -21 7 -30 -3 -37
-21 -12 -6 -40 19 -35 11 2 18 1 16 -4 -3 -4 0 -13 5 -21 7 -11 9 -4 8 25 0
22 -1 61 0 88 l1 47 55 0 c45 0 55 -3 56 -17 0 -10 4 -44 8 -75 4 -32 3 -62
-1 -66 -5 -5 5 -7 22 -4 33 5 41 22 10 22 -21 0 -27 15 -10 25 6 3 10 31 10
61 0 49 2 54 23 54 20 1 20 2 4 11 -14 8 -15 14 -7 24 11 13 8 17 -34 53 -12
9 -153 12 -631 12 l-615 0 0 -1280z m628 1226 c2 -10 0 -22 -6 -28 -6 -6 -11
1 -14 22 -5 32 14 38 20 6z m1745 -50 c8 9 97 -27 97 -39 0 -6 -11 -25 -26
-44 -24 -32 -26 -33 -54 -18 -41 21 -67 19 -95 -10 -52 -51 -17 -135 56 -135
22 0 29 5 29 20 0 15 -7 20 -28 20 -25 0 -28 3 -28 33 l1 32 59 3 58 3 -7 -47
c-3 -26 -14 -72 -24 -103 l-17 -56 -49 2 c-79 2 -115 7 -115 17 0 4 -11 17
-24 27 -37 29 -60 99 -52 154 12 75 96 153 153 142 13 -2 26 0 29 5 3 5 11 5
18 -1 7 -6 16 -8 19 -5z m-1126 -68 c-3 -8 -6 -5 -6 6 -1 11 2 17 5 13 3 -3 4
-12 1 -19z m573 -372 c0 -3 -4 -8 -10 -11 -5 -3 -10 -1 -10 4 0 6 5 11 10 11
6 0 10 -2 10 -4z m70 -22 c6 -14 17 -32 25 -41 8 -8 12 -19 9 -25 -4 -6 -2
-13 4 -17 6 -3 8 -18 5 -33 -7 -37 -31 -26 -25 12 3 23 0 30 -12 30 -9 0 -16
-6 -16 -14 0 -7 -11 -16 -24 -18 -19 -4 -22 -1 -18 14 2 10 11 18 18 18 16 0
16 2 8 24 -3 9 -11 16 -18 16 -6 0 -11 14 -11 30 0 25 4 30 23 30 15 0 26 -8
32 -26z m258 19 c-18 -3 -28 -11 -28 -22 0 -20 -42 -23 -61 -4 -20 20 -2 30
58 30 32 0 46 -1 31 -4z m-322 -63 c19 0 18 -6 -6 -30 l-20 -20 1 38 c0 20 3
31 6 25 2 -7 11 -13 19 -13z m204 -130 c-4 -12 -5 -12 -8 2 -2 11 -9 15 -19
11 -11 -4 -14 -2 -9 5 10 16 -3 54 -15 46 -18 -11 -4 18 21 45 l25 26 5 -60
c3 -33 3 -67 0 -75z m49 126 c11 -14 6 -15 -27 -7 -4 1 8 21 12 21 2 0 9 -6
15 -14z m-1101 -72 c1 -1 -6 -4 -17 -7 -15 -4 -18 -1 -13 12 4 13 3 14 -9 5
-15 -12 -59 -25 -59 -18 0 2 15 10 33 18 23 10 36 10 47 2 8 -5 16 -11 18 -12z
m880 -51 c-7 -27 -7 -38 1 -41 22 -7 10 -22 -19 -22 -23 0 -30 4 -30 20 0 11
7 20 15 20 8 0 15 5 15 10 0 6 -9 10 -20 10 -19 0 -27 20 -13 33 3 4 19 7 34
7 27 0 27 -1 17 -37z m-810 -133 c10 -67 2 -164 -11 -125 -3 11 -13 65 -22
120 -8 55 -18 114 -20 130 -5 26 -2 24 19 -15 13 -25 28 -74 34 -110z m1029
118 c-3 -7 -5 -2 -5 12 0 14 2 19 5 13 2 -7 2 -19 0 -25z m51 7 c-3 -14 -1
-25 3 -25 5 0 9 -4 9 -9 0 -5 -9 -7 -20 -4 -23 6 -26 27 -7 48 17 20 20 18 15
-10z m-1324 -30 c-4 -8 -10 -12 -15 -9 -14 8 -10 24 6 24 9 0 12 -6 9 -15z
m1096 -25 c0 -16 -4 -30 -9 -30 -5 0 -9 14 -9 30 1 17 5 30 10 30 4 0 8 -13 8
-30z m100 15 c-4 -5 -9 -16 -12 -24 -2 -9 -7 -5 -15 10 -9 21 -8 24 13 24 13
0 19 -4 14 -10z m128 -10 c38 -6 42 -10 41 -33 -1 -17 -3 -21 -6 -9 -6 23 -45
23 -41 0 2 -13 -5 -17 -30 -19 -26 -1 -32 2 -28 13 3 8 6 29 6 46 0 18 4 27 8
21 4 -6 26 -15 50 -19z m-263 -55 c4 -6 -5 -10 -20 -10 -15 0 -24 4 -20 10 3
6 12 10 20 10 8 0 17 -4 20 -10z m-1280 -10 c3 -5 -3 -10 -15 -10 -12 0 -18 5
-15 10 3 6 10 10 15 10 5 0 12 -4 15 -10z m55 6 c0 -2 -7 -7 -16 -10 -8 -3
-12 -2 -9 4 6 10 25 14 25 6z m-65 -40 c-16 -7 -47 -27 -68 -44 -21 -17 -45
-28 -55 -25 -22 5 -134 -45 -127 -58 4 -5 -9 -10 -27 -10 -58 -3 -63 -4 -76
-12 -7 -5 -10 -12 -8 -16 8 -12 -21 -48 -44 -54 -11 -3 -20 -3 -20 0 0 5 45
86 67 120 12 18 13 24 4 19 -11 -7 -11 -5 -4 9 6 10 24 19 44 20 19 2 95 17
169 33 152 34 192 39 145 18z m62 8 c-3 -3 -12 -4 -19 -1 -8 3 -5 6 6 6 11 1
17 -2 13 -5z m134 -157 c12 -22 12 -22 -10 -3 -11 11 -21 23 -21 28 0 14 19
-1 31 -25z m246 26 c-4 -3 -51 -9 -106 -12 -79 -5 -97 -3 -89 7 7 8 42 12 106
12 52 0 92 -3 89 -7z m-837 -13 c0 -5 -5 -10 -11 -10 -5 0 -7 5 -4 10 3 6 8
10 11 10 2 0 4 -4 4 -10z m260 1 c0 -14 -23 -27 -55 -30 -16 -2 -36 -8 -42
-13 -10 -8 -13 -6 -13 6 0 8 11 18 25 22 14 3 25 9 25 13 0 4 14 8 30 9 17 1
30 -2 30 -7z m1856 -76 c-20 -30 -32 -32 -39 -5 -5 19 3 24 31 21 6 -1 12 4
12 10 0 7 3 9 6 6 4 -4 -1 -18 -10 -32z m-1846 -4 c0 -5 -12 -11 -27 -14 -82
-15 -251 -47 -270 -52 -40 -9 -25 12 25 35 34 17 68 23 125 25 42 1 80 5 84 8
10 10 63 8 63 -2z m1723 -27 c3 -4 -4 -15 -16 -25 -22 -18 -22 -18 26 -19 28
0 47 -5 47 -11 0 -8 -18 -10 -55 -7 -31 3 -58 1 -61 -4 -8 -13 -24 -9 -19 5
22 62 26 67 48 67 13 0 26 -3 30 -6z m-1723 -11 c0 -4 -14 -22 -31 -39 l-31
-32 38 13 c59 21 104 19 104 -4 0 -31 -47 -61 -94 -61 -65 0 -117 -12 -123
-27 -4 -9 14 -35 45 -66 36 -38 49 -58 46 -74 -5 -30 18 -30 59 -1 l32 23 -25
-35 c-13 -19 -57 -78 -97 -132 l-72 -96 -118 49 c-65 27 -119 49 -120 49 -1 0
-3 -8 -5 -17 -3 -14 -9 -9 -22 17 -26 48 -16 177 20 270 43 109 39 106 209
136 83 14 152 28 154 30 7 7 31 5 31 -3z m171 -10 c13 -16 12 -17 -3 -4 -10 7
-18 15 -18 17 0 8 8 3 21 -13z m1764 2 c0 -5 -10 -11 -22 -13 -16 -2 -23 2
-23 13 0 11 7 15 23 13 12 -2 22 -7 22 -13z m-1748 -47 c-3 -8 -6 -5 -6 6 -1
11 2 17 5 13 3 -3 4 -12 1 -19z m74 -24 c9 -11 9 -14 0 -14 -18 0 -51 19 -51
29 0 13 37 2 51 -15z m1316 10 c-3 -3 -12 -4 -19 -1 -8 3 -5 6 6 6 11 1 17 -2
13 -5z m-80 -71 c-3 -10 -5 -2 -5 17 0 19 2 27 5 18 2 -10 2 -26 0 -35z m118
-3 c-3 -5 -14 -10 -23 -9 -14 0 -13 2 3 9 27 11 27 11 20 0z m279 -16 c21 -1
41 -6 45 -10 8 -9 -127 4 -164 16 -24 8 -19 9 25 4 30 -3 72 -8 94 -10z m-719
-13 c-27 -6 -31 -10 -36 -56 l-6 -50 -1 58 -2 57 38 -1 c36 -1 36 -2 7 -8z
m103 -3 c9 -9 9 -15 0 -25 -8 -10 -7 -17 8 -27 15 -12 16 -16 5 -30 -7 -9 -26
-16 -42 -16 -28 0 -29 1 -29 55 0 51 2 55 23 55 13 0 28 -5 35 -12z m100 -2
c-11 -8 -18 -27 -18 -49 0 -25 5 -37 18 -40 9 -3 -3 -5 -28 -5 -25 0 -37 2
-27 5 12 3 17 15 17 43 0 27 -6 42 -17 49 -14 8 -8 10 27 10 40 0 43 -1 28
-13z m172 -27 c0 -6 -4 -7 -10 -4 -5 3 -10 11 -10 16 0 6 5 7 10 4 6 -3 10
-11 10 -16z m468 -299 c-9 -27 -28 -50 -28 -35 0 9 30 65 35 65 2 0 -1 -14 -7
-30z m-2353 0 c10 -11 16 -20 13 -20 -3 0 -13 9 -23 20 -10 11 -16 20 -13 20
3 0 13 -9 23 -20z m185 -60 c0 -22 -15 -27 -26 -8 -5 7 -3 8 6 3 10 -6 12 -4
7 8 -3 10 -2 17 3 17 6 0 10 -9 10 -20z m-109 -7 c13 -16 12 -17 -3 -4 -17 13
-22 21 -14 21 2 0 10 -8 17 -17z m54 -43 c10 -11 16 -20 13 -20 -3 0 -13 9
-23 20 -10 11 -16 20 -13 20 3 0 13 -9 23 -20z m83 -15 c-3 -3 -9 2 -12 12 -6
14 -5 15 5 6 7 -7 10 -15 7 -18z m1619 3 c-3 -8 -6 -5 -6 6 -1 11 2 17 5 13 3
-3 4 -12 1 -19z m453 8 c0 -2 -8 -10 -17 -17 -16 -13 -17 -12 -4 4 13 16 21
21 21 13z m-1865 -165 c50 -41 95 -78 100 -83 16 -14 -63 20 -145 63 -41 22
-95 58 -120 80 l-45 41 44 -31 c47 -32 66 -34 38 -3 -10 10 -17 24 -17 30 0 7
-4 12 -9 12 -5 0 -17 12 -27 27 -19 30 -24 33 181 -136z m-221 110 c-3 -3 -15
6 -27 18 l-22 24 27 -19 c14 -10 24 -21 22 -23z m1636 -93 c0 -26 -4 -50 -10
-53 -6 -4 -10 19 -10 62 0 48 3 63 10 53 5 -8 10 -36 10 -62z m-1160 -122 c-8
-8 -11 -7 -8 3 2 8 -8 17 -22 22 l-25 7 27 1 c25 1 27 4 22 31 -4 16 -3 37 2
47 6 13 10 0 12 -41 2 -35 -2 -63 -8 -70z m1080 70 c0 -2 -7 -6 -15 -10 -8 -3
-15 -1 -15 4 0 6 7 10 15 10 8 0 15 -2 15 -4z m-287 -13 c-7 -2 -19 -2 -25 0
-7 3 -2 5 12 5 14 0 19 -2 13 -5z m73 -18 c-2 -35 -36 -35 -36 0 0 18 5 25 19
25 14 0 19 -7 17 -25z m141 18 c-20 -2 -52 -2 -70 0 -17 2 0 4 38 4 39 0 53
-2 32 -4z m-930 -120 c-3 -10 -5 -4 -5 12 0 17 2 24 5 18 2 -7 2 -21 0 -30z
m-86 4 c-10 -9 -11 -8 -5 6 3 10 9 15 12 12 3 -3 0 -11 -7 -18z m739 -47 c0
-11 -4 -20 -9 -20 -7 0 -8 17 -2 38 4 10 11 -2 11 -18z m-37 -10 c3 -11 1 -20
-4 -20 -5 0 -9 9 -9 20 0 11 2 20 4 20 2 0 6 -9 9 -20z m-703 -12 c-1 -7 -7
-26 -15 -43 l-15 -30 5 40 c2 22 4 41 5 43 1 9 20 -1 20 -10z"/>
<path d="M2340 2426 c0 -2 15 -6 34 -8 19 -2 32 0 30 4 -5 8 -64 12 -64 4z"/>
<path d="M1694 1226 c-8 -22 3 -33 18 -18 9 9 9 15 0 24 -9 9 -13 7 -18 -6z"/>
<path d="M1686 1175 c-3 -9 1 -18 10 -22 19 -7 39 11 30 26 -10 16 -33 13 -40
-4z"/>
<path d="M1300 2546 c0 -23 17 -28 60 -21 60 10 53 35 -10 35 -37 0 -50 -4
-50 -14z"/>
<path d="M1448 2553 c28 -4 32 -8 32 -35 0 -30 1 -30 18 -15 10 10 26 17 35
17 10 0 17 8 17 20 0 13 -7 20 -20 20 -11 0 -20 -6 -20 -12 0 -9 -3 -9 -8 -3
-4 6 -25 11 -47 11 -33 1 -35 0 -7 -3z"/>
<path d="M1560 2540 c0 -12 5 -17 14 -14 8 3 17 1 21 -5 8 -14 35 -14 35 -1 0
6 -6 10 -14 10 -7 0 -19 7 -26 15 -17 21 -30 19 -30 -5z"/>
<path d="M1523 2479 l-28 -19 53 0 52 0 0 -86 c0 -74 2 -85 16 -80 9 3 18 6
20 6 2 0 4 38 4 85 0 78 -2 85 -20 85 -11 0 -20 4 -20 9 0 18 -50 18 -77 0z"/>
<path d="M510 2330 c0 -25 4 -30 25 -30 17 0 25 6 25 18 0 14 2 15 10 2 7 -12
12 -12 21 -3 19 19 -8 43 -47 43 -31 0 -34 -3 -34 -30z"/>
<path d="M1460 2351 c0 -6 5 -13 10 -16 6 -3 10 1 10 9 0 9 -4 16 -10 16 -5 0
-10 -4 -10 -9z"/>
<path d="M895 2290 c3 -5 8 -10 11 -10 2 0 4 5 4 10 0 6 -5 10 -11 10 -5 0 -7
-4 -4 -10z"/>
<path d="M1901 2233 c0 -21 3 -33 5 -26 3 7 14 2 31 -13 30 -28 53 -33 31 -6
-8 9 -26 32 -41 50 l-27 34 1 -39z"/>
<path d="M900 2119 c0 -15 -3 -41 -6 -58 -4 -18 -2 -31 4 -31 13 0 22 80 11
100 -6 11 -8 8 -9 -11z"/>
<path d="M650 2065 c0 -42 3 -55 15 -55 16 0 19 27 9 79 -10 50 -24 36 -24
-24z"/>
<path d="M121 1994 c0 -11 3 -14 6 -6 3 7 2 16 -1 19 -3 4 -6 -2 -5 -13z"/>
<path d="M91 1924 c0 -11 3 -14 6 -6 3 7 2 16 -1 19 -3 4 -6 -2 -5 -13z"/>
<path d="M193 1845 c-10 -23 -9 -25 13 -25 27 0 30 8 12 33 -12 15 -14 15 -25
-8z"/>
<path d="M367 1826 c-4 -9 2 -35 13 -58 l19 -43 -4 42 c-2 24 -8 50 -13 59 -8
15 -10 15 -15 0z"/>
</g>
</svg>
